<?xml version="1.0" standalone="no"?>
<!DOCTYPE svg PUBLIC "-//W3C//DTD SVG 20010904//EN"
 "http://www.w3.org/TR/2001/REC-SVG-20010904/DTD/svg10.dtd">
<svg version="1.0" xmlns="http://www.w3.org/2000/svg"
 width="889.000000pt" height="889.000000pt" viewBox="0 0 889.000000 889.000000"
 preserveAspectRatio="xMidYMid meet">
<metadata>
Created by potrace 1.14, written by Peter Selinger 2001-2017
</metadata>
<g transform="translate(0.000000,889.000000) scale(0.100000,-0.100000)"
fill="#000000" stroke="none">
<path d="M4199 8886 c-2 -2 -50 -7 -106 -10 -56 -4 -112 -9 -125 -11 -13 -2
-48 -6 -78 -10 -30 -3 -66 -7 -80 -9 -14 -3 -41 -7 -60 -10 -28 -4 -200 -37
-270 -51 -224 -46 -586 -166 -840 -277 -62 -28 -307 -151 -350 -176 -19 -11
-53 -30 -74 -42 -55 -30 -247 -154 -331 -214 -79 -56 -177 -128 -185 -136 -3
-3 -26 -22 -52 -43 -26 -21 -53 -43 -60 -50 -8 -7 -47 -41 -88 -77 -133 -115
-329 -317 -484 -500 -53 -63 -163 -210 -239 -322 -327 -478 -566 -1038 -676
-1583 -47 -236 -70 -405 -87 -635 -11 -164 -5 -587 11 -690 2 -14 7 -59 10
-100 4 -41 9 -82 10 -90 2 -8 8 -51 15 -95 7 -44 14 -89 16 -100 3 -11 9 -42
14 -70 38 -207 112 -464 200 -702 175 -466 425 -894 761 -1298 88 -106 370
-393 479 -487 408 -355 899 -643 1405 -827 178 -64 425 -137 528 -155 15 -3
35 -7 45 -10 20 -6 38 -9 192 -36 146 -24 178 -29 254 -36 33 -3 72 -7 86 -10
128 -22 630 -21 825 1 115 13 292 36 305 40 8 2 33 6 55 10 106 15 315 65 545
130 52 14 330 115 385 140 395 176 636 312 910 514 50 36 95 69 100 73 135 98
468 410 611 573 418 475 725 1020 915 1625 32 100 94 341 104 400 3 19 8 42
10 50 2 8 7 29 10 45 2 17 7 39 9 50 5 26 15 91 21 135 20 154 25 196 32 275
16 182 9 664 -12 845 -3 19 -7 58 -10 85 -3 28 -8 64 -11 80 -3 17 -7 44 -9
60 -2 17 -15 89 -30 160 -79 391 -195 735 -365 1080 -114 231 -184 352 -311
540 -215 316 -487 625 -759 860 -30 26 -68 59 -85 74 -73 63 -335 253 -452
327 -487 308 -1003 512 -1568 620 -85 16 -284 44 -348 49 -43 4 -88 9 -100 12
-24 5 -613 14 -618 9z"/>
</g>
</svg>
