<svg width="34" height="32" viewBox="0 0 34 32" xmlns="http://www.w3.org/2000/svg"><g fill="#FE6600" fill-rule="nonzero"><path d="M21.922 17H1.078C.483 17 0 16.552 0 16s.483-1 1.078-1h20.844c.595 0 1.078.448 1.078 1s-.483 1-1.078 1z"/><path d="M16.09 23c-.279 0-.558-.107-.77-.324a1.116 1.116 0 010-1.563L20.366 16l-5.046-5.113a1.116 1.116 0 010-1.563 1.081 1.081 0 011.543 0l5.817 5.894a1.116 1.116 0 010 1.563l-5.817 5.893a1.076 1.076 0 01-.772.326z"/><path d="M17.467 32c-6.84 0-12.88-3.982-15.388-10.147-.229-.559.057-1.193.636-1.414.577-.218 1.234.054 1.462.617 2.166 5.322 7.383 8.762 13.29 8.762 7.872 0 14.278-6.2 14.278-13.818 0-7.619-6.406-13.818-14.278-13.818-5.907 0-11.124 3.44-13.29 8.762-.23.563-.885.835-1.462.617-.58-.221-.865-.855-.636-1.414C4.587 3.982 10.626 0 17.467 0 26.583 0 34 7.178 34 16s-7.417 16-16.533 16z"/></g></svg>